<?xml version="1.0" standalone="no"?>
<!DOCTYPE svg PUBLIC "-//W3C//DTD SVG 20010904//EN"
 "http://www.w3.org/TR/2001/REC-SVG-20010904/DTD/svg10.dtd">
<svg version="1.0" xmlns="http://www.w3.org/2000/svg"
 width="559.000000pt" height="605.000000pt" viewBox="0 0 559.000000 605.000000"
 preserveAspectRatio="xMidYMid meet">

<g transform="translate(0.000000,605.000000) scale(0.100000,-0.100000)"
fill="#000000" stroke="none">
<path d="M180 6015 c-7 -8 -10 -20 -7 -27 2 -7 455 -797 1006 -1756 l1001
-1744 0 -1146 -1 -1147 693 -3 c643 -2 694 -1 706 15 9 13 12 260 12 1153 l0
1135 992 1740 c553 970 992 1751 992 1765 l1 25 -738 0 -738 0 -393 -690
c-216 -379 -482 -848 -592 -1042 l-200 -352 -596 1042 -595 1042 -765 3 c-669
2 -767 0 -778 -13z"/>
</g>
</svg>
